<svg width="164" height="35" viewBox="0 0 164 35" fill="none" xmlns="http://www.w3.org/2000/svg">
<path fill-rule="evenodd" clip-rule="evenodd" d="M0 0.682767V34.2828H13.532C15.7134 34.3361 17.8819 33.9347 19.8997 33.1042C21.9175 32.2737 23.7402 31.0322 25.252 29.4588C26.8016 27.8815 28.0175 26.0081 28.8271 23.9504C29.6367 21.8928 30.0234 19.6931 29.964 17.4828C30.0234 15.2724 29.6367 13.0727 28.8271 11.0151C28.0175 8.95747 26.8016 7.08407 25.252 5.50677C23.7401 3.93347 21.9173 2.69208 19.8996 1.86156C17.8818 1.03105 15.7133 0.629608 13.532 0.682767H0ZM7.733 26.8908V8.07177H13.533C14.7355 8.02386 15.9348 8.22753 17.054 8.66973C18.1733 9.11193 19.1879 9.78292 20.033 10.6398C20.8814 11.5574 21.5385 12.6349 21.9659 13.8093C22.3932 14.9837 22.5823 16.2315 22.522 17.4798C22.5823 18.7281 22.3933 19.9759 21.9659 21.1503C21.5386 22.3247 20.8815 23.4022 20.033 24.3198C19.1881 25.1768 18.1735 25.8479 17.0542 26.2902C15.9349 26.7324 14.7355 26.9359 13.533 26.8878H7.733V26.8908ZM42.533 20.9388H54.615V13.6388H42.529V8.07177H55.82V0.682767H34.796V34.2828H56.061V26.8908H42.529V20.9388H42.533ZM78.876 34.2828L89.895 0.682767H81.437L73.946 25.4028L66.455 0.682767H57.998L69.017 34.2828H78.876ZM93.276 34.2828H101.009V0.682767H93.276V34.2828ZM131.891 32.8668C134.384 31.5547 136.472 29.5883 137.932 27.1788L131.262 23.3388C130.532 24.6397 129.43 25.6928 128.097 26.3628C126.656 27.107 125.054 27.4848 123.433 27.4628C122.113 27.5256 120.794 27.3151 119.559 26.8442C118.324 26.3734 117.199 25.6525 116.256 24.7268C115.346 23.7599 114.64 22.6201 114.179 21.375C113.719 20.1299 113.513 18.8049 113.574 17.4788C113.513 16.1526 113.719 14.8276 114.179 13.5825C114.64 12.3374 115.346 11.1976 116.256 10.2308C117.199 9.30499 118.324 8.5841 119.559 8.11329C120.794 7.64248 122.113 7.4319 123.433 7.49477C125.044 7.47175 126.637 7.84249 128.072 8.57477C129.414 9.25258 130.524 10.3134 131.262 11.6228L137.932 7.78277C136.445 5.37823 134.342 3.41456 131.842 2.09477C129.26 0.701673 126.367 -0.0165426 123.433 0.00676726C113.654 -0.265233 105.636 7.69777 105.842 17.4788C105.634 27.2598 113.651 35.2258 123.43 34.9548C126.38 34.982 129.289 34.2638 131.888 32.8668H131.891ZM149.772 20.9388H161.854V13.6388H149.769V8.07177H163.059V0.682767H142.036V34.2828H163.301V26.8908H149.769V20.9388H149.772Z" fill="#FFC600"/>
</svg>
